# xmcd
#
# Track frame offsets: 
#        150
#        11400
#        23550
#        37215
#        51600
#        63675
#        74100
#        83662
#        94050
#        109650
#        120675
#        134475
#
# Disc length: 1896 seconds
#
# Revision: 0
# Processed by: cddbd v1.5.2PL0 Copyright (c) Steve Scherf et al.
# Submitted via: ExactAudioCopy v0.99pb5
#
DISCID=ae07660c
DTITLE=Hungfy John - Blue Shadows
DYEAR=1987
DGENRE=Blues
TTITLE0=You ain't my Favourite
TTITLE1=Little Babe
TTITLE2=Love Man
TTITLE3=I like it
TTITLE4=Birds ond bees
TTITLE5=Sometimes
TTITLE6=Can't get you out off my mind
TTITLE7=As long as you don't lie
TTITLE8=Change my style
TTITLE9=Burning flame
TTITLE10=Can't pay the bill
TTITLE11=The snake
EXTD=
EXTT0=
EXTT1=
EXTT2=
EXTT3=
EXTT4=
EXTT5=
EXTT6=
EXTT7=
EXTT8=
EXTT9=
EXTT10=
EXTT11=
PLAYORDER=
